<?xml version="1.0" encoding="UTF-8" standalone="no"?>
<svg
   viewBox="0 0 40.253769 26"
   version="1.1"
   id="svg1"
   sodipodi:docname="favicon.svg"
   width="40.253769"
   height="26"
   inkscape:version="1.3 (0e150ed6c4, 2023-07-21)"
   xmlns:inkscape="http://www.inkscape.org/namespaces/inkscape"
   xmlns:sodipodi="http://sodipodi.sourceforge.net/DTD/sodipodi-0.dtd"
   xmlns="http://www.w3.org/2000/svg"
   xmlns:svg="http://www.w3.org/2000/svg">
  <defs
     id="defs1" />
  <sodipodi:namedview
     id="namedview1"
     pagecolor="#ffffff"
     bordercolor="#000000"
     borderopacity="0.25"
     inkscape:showpageshadow="2"
     inkscape:pageopacity="0.0"
     inkscape:pagecheckerboard="0"
     inkscape:deskcolor="#d1d1d1"
     inkscape:zoom="11.313709"
     inkscape:cx="-8.662058"
     inkscape:cy="-5.5242717"
     inkscape:window-width="2560"
     inkscape:window-height="1369"
     inkscape:window-x="-8"
     inkscape:window-y="-8"
     inkscape:window-maximized="1"
     inkscape:current-layer="svg1" />
  <path
     fill="#000000"
     stroke="none"
     stroke-width="0"
     d="m 13.89,24.97 2.97,-0.53 V 2.1567187 L 4.77,24.44 7.86,24.97 V 26 H 0 V 24.97 L 2.66,24.44 15.3,1.39 12.09,1.03 V 0 H 31.53 V 6 H 30.27 L 29.61,2.02 C 28.15,1.85 26.04,1.77 23.28,1.77 H 20.61 V 12 h 5.48 l 0.6,-3.12 h 1.25 v 8.04 h -1.25 l -0.6,-3.15 h -5.48 v 10.46 h 3.56 c 3.35,0 5.55,-0.1 6.6,-0.31 L 31.91,19 h 1.26 l -0.36,7 H 13.89 Z M 37.75377,21 c 3.33333,0 3.33333,5 0,5 -3.33333,0 -3.33333,-5 0,-5"
     id="path1"
     sodipodi:nodetypes="ccccccccccccccccsccccccccccscccccccsc"
     style="fill:#34424f;fill-opacity:1" />
</svg>
