<?xml version="1.0" encoding="UTF-8" standalone="no"?>
<svg
   width="1.37778in"
   height="1.42222in"
   viewBox="0 0 124 128"
   version="1.1"
   id="svg1"
   sodipodi:docname="xxx.svg"
   inkscape:version="1.3 (0e150ed6c4, 2023-07-21)"
   xmlns:inkscape="http://www.inkscape.org/namespaces/inkscape"
   xmlns:sodipodi="http://sodipodi.sourceforge.net/DTD/sodipodi-0.dtd"
   xmlns="http://www.w3.org/2000/svg"
   xmlns:svg="http://www.w3.org/2000/svg">
  <defs
     id="defs1" />
  <sodipodi:namedview
     id="namedview1"
     pagecolor="#ffffff"
     bordercolor="#000000"
     borderopacity="0.25"
     inkscape:showpageshadow="2"
     inkscape:pageopacity="0.0"
     inkscape:pagecheckerboard="0"
     inkscape:deskcolor="#d1d1d1"
     inkscape:document-units="in"
     inkscape:zoom="2.1478305"
     inkscape:cx="49.817711"
     inkscape:cy="30.030302"
     inkscape:window-width="2560"
     inkscape:window-height="1369"
     inkscape:window-x="-8"
     inkscape:window-y="-8"
     inkscape:window-maximized="1"
     inkscape:current-layer="svg1" />
  <path
     id="path1"
     fill="none"
     stroke="black"
     stroke-width="1"
     d="M 70.39,43.76            C 70.39,38.32 68.72,34.39 65.41,31.93              62.13,29.44 56.82,28.20 49.45,28.20              49.45,28.20 36.18,28.20 36.18,28.20              36.18,28.20 36.18,61.72 36.18,61.72              36.18,61.72 50.20,61.72 50.20,61.72              57.15,61.72 62.23,60.31 65.47,57.52              68.75,54.70 70.39,50.08 70.39,43.76 Z            M 76.84,83.90            C 76.84,78.23 74.81,74.07 70.78,71.45              66.78,68.83 60.36,67.52 51.55,67.52              51.55,67.52 36.18,67.52 36.18,67.52              36.18,67.52 36.18,101.43 36.18,101.43              42.08,101.69 48.37,101.79 55.02,101.79              62.29,101.79 67.73,100.35 71.37,97.47              75.01,94.55 76.84,90.03 76.84,83.90              76.84,83.90 76.84,83.90 76.84,83.90 Z            M 12.85,107.59            C 12.85,107.59 12.85,104.22 12.85,104.22              12.85,104.22 23.86,102.48 23.86,102.48              23.86,102.48 23.86,27.48 23.86,27.48              23.86,27.48 12.85,25.77 12.85,25.77              12.85,25.77 12.85,22.40 12.85,22.40              12.85,22.40 52.04,22.40 52.04,22.40              62.95,22.40 70.91,24.07 75.93,27.38              80.97,30.69 83.50,35.93 83.50,43.14              83.50,48.32 81.92,52.74 78.84,56.41              75.76,60.01 71.44,62.44 65.83,63.65              73.53,64.47 79.50,66.60 83.76,70.11              87.98,73.64 90.08,78.17 90.08,83.67              90.08,91.53 87.23,97.50 81.53,101.56              75.83,105.59 67.54,107.59 56.63,107.59              56.63,107.59 12.85,107.59 12.85,107.59 Z" />
  <circle
     style="fill:none;stroke:#000000;stroke-width:0.990002;stroke-dasharray:none;stroke-opacity:1"
     id="path3"
     cx="104.64772"
     cy="100.39216"
     r="5.8925834" />
</svg>
